<?xml version="1.0" encoding="utf-8"?>
<!-- Svg Vector Icons : http://www.onlinewebfonts.com/icon -->
<!DOCTYPE svg PUBLIC "-//W3C//DTD SVG 1.1//EN" "http://www.w3.org/Graphics/SVG/1.1/DTD/svg11.dtd">
<svg version="1.1" xmlns="http://www.w3.org/2000/svg" xmlns:xlink="http://www.w3.org/1999/xlink" x="0px" y="0px" viewBox="0 0 256 256" enable-background="new 0 0 256 256" xml:space="preserve">
<metadata> Svg Vector Icons : http://www.onlinewebfonts.com/icon </metadata>
<g><g><g><path fill="#000000" d="M119.2,119.3L10,228.5l8.7,8.6l8.6,8.7l23.1-23.1l23-23h70.2c45.4,0,71.4-0.2,73.9-0.6c10.4-1.7,18.9-10.2,20.6-20.6c0.8-4.9,0.8-102.8,0-107.6c-1.2-7.7-6.4-15-12.9-18.3l-3.1-1.6l12-12l12-12l-8.5-8.5c-4.7-4.7-8.6-8.5-8.8-8.5S179.3,59.3,119.2,119.3z M179.6,101c2.4,7.3,2.9,11.2,2.5,19.7c-0.2,5.3-0.7,9.2-1.5,12.4c-7.9,28.9-37.5,47-66.4,40.5c-4.3-0.9-10.6-3.1-10.6-3.7c0-0.2,4.6-4.9,10.1-10.4l10.2-10.2h2.9c9.3,0,19.3-5.5,24.6-13.4c3.2-4.8,4.8-9.5,5.3-15.4l0.4-4.4l10-10.1c5.5-5.6,10.2-10,10.4-9.8C177.9,96.3,178.8,98.5,179.6,101z"/><path fill="#000000" d="M97.6,12.5c-3.7,0.6-8.9,3.1-12,5.6c-1.6,1.3-5.1,5.9-9.2,12.2c-7.5,11.2-10.3,14.3-16.1,17c-3.9,1.8-4.2,1.9-15.1,2.2c-9.7,0.3-11.8,0.5-15.1,1.7c-7,2.5-12.3,7.7-15.1,14.9l-1.5,3.6L13.3,122c-0.1,30.8,0.1,53.7,0.4,55.8c0.3,2,0.9,4.6,1.5,5.9l1,2.3l27.3-27.3l27.4-27.4l-0.7-4.5c-1.1-6.3-0.5-17.7,1.2-23.3c2.9-10.2,8-18.6,15.6-25.8c7.7-7.3,15.1-11.4,25.2-14.1c6.2-1.6,16.7-2.1,22.4-0.9l4.2,0.8l17.7-17.7L174.1,28l-2.9-4.2c-1.6-2.3-4-5-5.2-6c-3.2-2.5-8.1-4.7-12.2-5.3C149.7,11.8,101.6,11.8,97.6,12.5z"/></g></g></g>
</svg>